<svg xmlns="http://www.w3.org/2000/svg" viewBox="0 0 215.89 205.08"><defs><style>.cls-1{fill:#fff;stroke-width:4px;}.cls-1,.cls-2{stroke:#000;stroke-miterlimit:10;}.cls-2{fill:none;stroke-width:2px;}.cls-3{font-size:13px;font-family:MyriadPro-Regular, Myriad Pro;}</style></defs><title>Asset 2</title><g id="Layer_2" data-name="Layer 2"><g id="Layer_2-2" data-name="Layer 2"><polygon class="cls-1" points="104.95 99.55 142.72 66.09 112.97 132.38 144.44 132.38 104.95 54.5 104.95 54.5 64.89 132.38 96.94 132.38 67.18 66.73 104.95 99.55 104.95 99.55"/><line class="cls-2" x1="3.98" y1="6.59" x2="41.42" y2="41.24"/><line class="cls-2" x1="175.91" y1="150.47" x2="215.25" y2="182.96"/><text class="cls-3" transform="translate(61.87 21.71) rotate(-25.97)">A</text><text class="cls-3" transform="translate(78.42 14.8) rotate(-15.11)">L</text><text class="cls-3" transform="translate(94.21 11.46) rotate(-4.78)">E</text><text class="cls-3" transform="translate(110.57 10.96) rotate(5.78)">X</text><text class="cls-3" transform="matrix(0.96, 0.27, -0.27, 0.96, 127.79, 13.75)"> </text><text class="cls-3" transform="translate(139.92 17.67) rotate(25.96)">M</text><text class="cls-3" transform="matrix(0.79, 0.61, -0.61, 0.79, 157.67, 27.64)">C</text><text class="cls-3" transform="matrix(0.65, 0.76, -0.76, 0.65, 170.88, 39.11)">D</text><text class="cls-3" transform="matrix(0.48, 0.88, -0.88, 0.48, 182.23, 53.86)">O</text><text class="cls-3" transform="matrix(0.28, 0.96, -0.96, 0.28, 190.47, 70.84)">W</text><text class="cls-3" transform="translate(195.07 91.22) rotate(85.63)">E</text><text class="cls-3" transform="translate(195.42 107.62) rotate(95.8)">L</text><text class="cls-3" transform="translate(192.91 123.55) rotate(106.05)">L</text><text class="cls-3" transform="translate(14.42 53.91) rotate(114.85)">D</text><text class="cls-3" transform="translate(7 72.98) rotate(104.78)">I</text><text class="cls-3" transform="translate(3.97 87.57) rotate(94.85)">G</text><text class="cls-3" transform="translate(3.49 107.71) rotate(85.06)">I</text><text class="cls-3" transform="matrix(0.25, 0.97, -0.97, 0.25, 5.58, 122.39)">T</text><text class="cls-3" transform="translate(10.73 138.93) rotate(65.43)">A</text><text class="cls-3" transform="matrix(0.58, 0.82, -0.82, 0.58, 20.06, 156.45)">L</text><text class="cls-3" transform="translate(31.19 170.34) rotate(45.64)"> </text><text class="cls-3" transform="translate(41.88 180.2) rotate(35.8)">D</text><text class="cls-3" transform="translate(59.29 191.2) rotate(24.79)">E</text><text class="cls-3" transform="translate(76.26 197.86) rotate(14.41)">S</text><text class="cls-3" transform="translate(94.04 201.31) rotate(5.08)">I</text><text class="cls-3" transform="translate(108.92 201.84) rotate(-4.71)">G</text><text class="cls-3" transform="matrix(0.96, -0.28, 0.28, 0.96, 129.11, 198.97)">N</text><text class="cls-3" transform="translate(148.38 192.02) rotate(-27.36)">E</text><text class="cls-3" transform="translate(164.11 182.68) rotate(-37.86)">R</text></g></g></svg>